<svg xmlns="http://www.w3.org/2000/svg" width="167" height="167" viewBox="0 0 167 167">
  <g id="Group_11626" data-name="Group 11626" transform="translate(-2444 8033)">
    <g id="Group_11619" data-name="Group 11619">
      <circle id="Ellipse_163" data-name="Ellipse 163" cx="83.5" cy="83.5" r="83.5" transform="translate(2444 -8033)" fill="#e84142"/>
      <path id="Path_31516" data-name="Path 31516" d="M213.87,138.249c2.581-5.331,6.745-5.331,9.326,0l16.07,33.738c2.581,5.331.469,9.68-4.692,9.68H202.2c-5.1,0-7.214-4.349-4.692-9.68ZM182.785,73.3c2.581-5.331,6.686-5.331,9.267,0l3.578,7.716,8.446,17.746a21.717,21.717,0,0,1,0,16.062l-28.328,58.709c-2.581,4.77-6.862,7.786-11.613,8.136H140.616c-5.161,0-7.273-4.279-4.692-9.68Z" transform="translate(2339.805 -8084.333)" fill="#fff"/>
    </g>
  </g>
</svg>
