<svg xmlns="http://www.w3.org/2000/svg" xmlns:xlink="http://www.w3.org/1999/xlink" width="228.504" height="57.099" viewBox="0 0 228.504 57.099">
  <defs>
    <linearGradient id="linear-gradient" x1="0.5" x2="0.5" y2="1" gradientUnits="objectBoundingBox">
      <stop offset="0" stop-color="#f858a2"/>
      <stop offset="1" stop-color="#fe585c"/>
    </linearGradient>
  </defs>
  <g id="Group_46981" data-name="Group 46981" transform="translate(-161.439 -218.064)">
    <path id="roco_sgv-01" d="M168.934,99.729h0A28.528,28.528,0,0,0,140.419,71.18h0A28.529,28.529,0,0,0,111.9,99.729h0a28.529,28.529,0,0,0,28.5,28.545h0a28.529,28.529,0,0,0,28.5-28.538Zm108.238,0h0A28.524,28.524,0,0,0,248.652,71.18h0a28.524,28.524,0,0,0-28.5,28.549h0a28.524,28.524,0,0,0,28.5,28.545h0A28.524,28.524,0,0,0,277.16,99.729ZM208.786,71.18h0A28.528,28.528,0,0,0,180.26,99.727v0a28.528,28.528,0,0,0,28.5,28.545h0Z" transform="translate(112.771 146.889)" fill="url(#linear-gradient)"/>
    <g id="r-seeklogo.com" transform="translate(161.439 218.064)">
      <path id="Path_31501" data-name="Path 31501" d="M105.946,51.832v57.094H123.2v-22.2c4.313,0,6.883-.942,9.7,4.228,4.313,7.4,9.7,17.974,9.7,17.974H163.1s-12.931-21.146-14.018-22.2c-1.988-2.115-4.313-2.115-7.548-3.173,6.465-1.058,12.5-3.741,14.6-9.495a17.041,17.041,0,0,0-2.309-16.521c-3.4-3.568-6.895-5.706-15.522-5.706ZM123.2,63.723h11.314a5.311,5.311,0,0,1,0,10.573H123.2Z" transform="translate(-105.946 -51.827)" fill="url(#linear-gradient)"/>
    </g>
  </g>
</svg>
